<svg xmlns="http://www.w3.org/2000/svg" xmlns:svg="http://www.w3.org/2000/svg" xmlns:xlink="http://www.w3.org/1999/xlink" id="svg8" width="210mm" height="297mm" version="1.1" viewBox="0 0 210 297"><defs id="defs2"><linearGradient id="linearGradient4849"><stop style="stop-color:#0f0;stop-opacity:1" id="stop4858" offset="0"/><stop style="stop-color:#000;stop-opacity:1" id="stop4860" offset="1"/></linearGradient><radialGradient id="radialGradient4865" cx="-53.622" cy="126.256" r="94.544" fx="-53.622" fy="126.256" gradientTransform="matrix(1.3358209,0,0,1.3358209,178.87413,-32.874256)" gradientUnits="userSpaceOnUse" xlink:href="#linearGradient4849"/></defs><metadata id="metadata5"/><g id="layer1"><rect style="fill:#502d16;stroke-width:.31331837" id="rect81" width="159.504" height="135.034" x="23.798" y="72.032" transform="matrix(1,0,0.00669072,0.99997762,0,0)"/></g><g id="layer2"><ellipse style="fill:#502d16;fill-opacity:1;stroke-width:.31611225" id="path22" cx="103.439" cy="69.941" rx="80.03" ry="30.089" transform="matrix(1,0,0.00669072,0.99997762,0,0)"/><ellipse style="fill:#d38d5f;stroke-width:.27550063" id="path22-2" cx="102.605" cy="69.378" rx="69.748" ry="26.224" transform="matrix(1,0,0.00669072,0.99997762,0,0)"/><ellipse style="fill:#502d16;stroke-width:.31611225" id="path22-3" cx="103.105" cy="204.021" rx="80.03" ry="30.089" transform="matrix(1,0,0.00669072,0.99997762,0,0)"/><ellipse style="fill:#ffb380;stroke-width:.42290393" id="path224" cx="102.964" cy="69.003" rx="62.567" ry="23.097" transform="matrix(1,0,0.00669072,0.99997762,0,0)"/><ellipse style="fill:#d38d5f;fill-opacity:1;stroke-width:.33854744" id="path230" cx="102.772" cy="69.024" rx="56.669" ry="20.891" transform="matrix(1,0,0.00669072,0.99997762,0,0)"/><ellipse style="fill:#a05a2c;fill-opacity:1;stroke-width:.36061326" id="path234" cx="103.161" cy="68.852" rx="49.278" ry="17.124" transform="matrix(1,0,0.00669072,0.99997762,0,0)"/></g><g id="layer3"><rect style="fill:#000;fill-opacity:1;stroke-width:.33789638" id="rect238" width="12.968" height="97.827" x="48.177" y="110.121" transform="matrix(1,0,0.00669072,0.99997762,0,0)"/><rect style="fill:#000;fill-opacity:1;stroke-width:.33789638" id="rect238-3" width="12.968" height="97.827" x="80.597" y="110.708" transform="matrix(1,0,0.00669072,0.99997762,0,0)"/><rect style="fill:#000;fill-opacity:1;stroke-width:.33789638" id="rect238-6" width="12.968" height="97.827" x="113.276" y="111.099" transform="matrix(1,0,0.00669072,0.99997762,0,0)"/><rect style="fill:#000;fill-opacity:1;stroke-width:.33789638" id="rect238-0" width="12.968" height="97.827" x="144.399" y="110.904" transform="matrix(1,0,0.00669072,0.99997762,0,0)"/><rect style="fill:#000;fill-opacity:1;stroke-width:.43162194" id="rect238-2" width="13.274" height="155.942" x="183.462" y="-90.673" transform="matrix(0.49428307,0.86930101,-0.8591632,0.51170167,0,0)"/><rect style="fill:#502d16;fill-opacity:0;fill-rule:nonzero;stroke-width:.28982347" id="rect851" width="197.986" height="199.267" x="4.981" y="36.944" transform="matrix(1,0,0.00669072,0.99997762,0,0)"/></g></svg>